<svg xmlns="http://www.w3.org/2000/svg" xmlns:xlink="http://www.w3.org/1999/xlink" viewBox="0 0 258.748 62.084" overflow="visible">
  <g>
    <path d="M 0 0 L 258.748 0 L 258.748 62.08 L 0 62.08 Z" fill="transparent"></path>
    <path d="M 0 9.076 L 10.164 9.076 L 10.164 62.08 L 20.792 62.08 L 20.792 9.076 L 30.956 9.076 L 30.956 0 L 0 0 Z M 52.687 29.024 L 47.036 0 L 36.02 0 L 47.371 41.204 L 47.371 62.08 L 58.003 62.08 L 58.003 41.204 L 69.354 0 L 58.339 0 Z M 85.05 0 L 74.423 0 L 74.423 62.08 L 98.076 62.08 L 98.076 53.004 L 85.05 53.004 Z M 95.45 9.076 L 105.614 9.076 L 105.614 62.08 L 116.242 62.08 L 116.242 9.076 L 126.406 9.076 L 126.406 0 L 95.45 0 Z M 148.138 29.024 L 142.486 0 L 131.47 0 L 142.826 41.204 L 142.826 62.08 L 153.453 62.08 L 153.453 41.204 L 164.805 0 L 153.789 0 Z" fill="rgb(255,255,255)"></path>
    <path d="M 233.016 0 L 181.472 0 L 173.634 7.848 L 173.634 54.236 L 181.472 62.084 L 250.906 62.084 L 258.744 54.236 L 258.744 7.848 L 250.906 0 Z M 200.765 55.544 L 194.366 55.544 L 194.366 33.66 L 186.56 33.66 L 186.56 55.544 L 180.161 49.14 L 180.161 12.94 L 186.56 6.536 L 186.56 28.192 L 194.366 28.192 L 194.366 6.536 L 200.765 6.536 L 200.765 55.548 Z M 226.489 51.528 L 222.476 55.544 L 209.902 55.544 L 205.889 51.528 L 205.889 6.536 L 212.288 6.536 L 212.288 49.004 L 213.359 50.076 L 219.023 50.076 L 220.094 49.004 L 220.094 6.536 L 226.493 6.536 L 226.493 51.528 Z M 252.217 27.432 L 249.108 30.544 L 252.217 33.656 L 252.217 51.528 L 248.204 55.544 L 231.617 55.544 L 231.617 6.536 L 248.204 6.536 L 252.217 10.552 Z" fill="rgb(114,33,191)"></path>
    <path d="M 238.012 12.004 L 238.012 27.812 L 244.747 27.812 L 245.818 26.74 L 245.818 13.076 L 244.747 12.004 Z M 238.012 33.28 L 238.012 50.076 L 244.747 50.076 L 245.818 49.004 L 245.818 34.352 L 244.747 33.28 Z" fill="rgb(114,33,191)"></path>
  </g>
</svg>
